# File created by Blade
# Date/Time:  Thu Sep 25 21:01:51 2014
# Frame Rate: 120.000 fps
#------------------------------------------------------
:FULLY-SPECIFIED
:DEGREES
667
root 0.243822 2.289631 -7.950029 -30.445798 2.055108 0.293664
Spine 30.860097 8.837966 9.433839
Head -6.210001 -14.338436 10.380020
LeftShoulder -4.807855 22.446307 19.441621
LeftArm 11.499843 19.283455 -71.249438
LeftForeArm -7.967229 -0.000000 71.424850
LeftHand -42.211264 -0.000000 50.038669
LeftHandThumb1 -26.253704 0.000000 33.147579
RightShoulder -6.668742 21.116604 -18.738985
RightArm 12.324811 -23.043691 65.584626
RightForeArm -28.267743 0.000000 74.776224
RightHand -3.746047 -0.000000 7.069597
RightHandThumb1 -24.326973 -0.000000 -32.862282
LeftUpLeg -113.334074 -2.371423 -30.398580
LeftLeg 107.924606 -0.000000 -0.000000
LeftFoot 14.473971 -9.743535 -42.386465
LeftToeBase 5.228637 -0.000000 -0.000000
RightUpLeg -63.002256 -13.811568 6.807823
RightLeg 9.259780 -0.000000 -0.000000
RightFoot 19.386118 -16.022846 14.067512
RightToeBase 0.888838 -0.000000 -0.000000
668
root 0.246772 2.292870 -7.961879 -30.643094 2.316573 0.432997
Spine 31.293791 9.039928 9.663268
Head -6.432734 -14.825676 10.093310
LeftShoulder -4.597958 21.849669 19.156093
LeftArm 12.666939 18.852845 -70.451433
LeftForeArm -7.909115 -0.000000 71.837043
LeftHand -41.315171 0.000000 47.944661
LeftHandThumb1 -26.253704 0.000000 33.147579
RightShoulder -6.082473 21.545047 -18.600781
RightArm 13.771658 -22.805672 65.042608
RightForeArm -28.542483 -0.000000 73.474205
RightHand -3.514139 -0.000000 6.796263
RightHandThumb1 -24.326973 -0.000000 -32.862282
LeftUpLeg -113.561242 -2.695297 -30.843609
LeftLeg 107.823045 -0.000000 -0.000000
LeftFoot 15.267741 -9.774355 -43.561219
LeftToeBase 5.535262 -0.000000 -0.000000
RightUpLeg -62.778705 -13.847225 6.321447
RightLeg 9.277114 -0.000000 -0.000000
RightFoot 19.434381 -15.833969 14.175427
RightToeBase 0.231464 -0.000000 -0.000000
669
root 0.245221 2.292823 -7.977249 -30.809659 2.591210 0.601357
Spine 31.715549 9.303716 9.812407
Head -6.709190 -15.250171 9.964119
LeftShoulder -4.354507 21.236722 18.948208
LeftArm 13.820670 18.534844 -69.600678
LeftForeArm -7.992504 0.000000 72.270965
LeftHand -40.218821 0.000000 45.149598
LeftHandThumb1 -26.253704 0.000000 33.147579
RightShoulder -5.622522 22.016878 -18.477321
RightArm 15.211157 -22.993162 64.304706
RightForeArm -28.236619 0.000000 72.201145
RightHand -3.961495 0.000000 5.687795
RightHandThumb1 -24.326973 -0.000000 -32.862282
LeftUpLeg -113.794034 -3.025471 -31.282428
LeftLeg 107.723882 -0.000000 -0.000000
LeftFoot 15.917998 -9.944804 -44.068855
LeftToeBase 5.077839 -0.000000 -0.000000
RightUpLeg -62.628954 -13.882751 5.853310
RightLeg 9.339158 -0.000000 -0.000000
RightFoot 19.539195 -15.624408 14.132699
RightToeBase 0.127180 -0.000000 -0.000000
670
root 0.242023 2.289008 -7.997769 -30.921422 2.823071 0.673903
Spine 32.063517 9.515451 10.103662
Head -6.980037 -15.705625 9.687781
LeftShoulder -4.132087 20.632605 18.705162
LeftArm 14.981977 18.153507 -68.901617
LeftForeArm -7.892260 -0.000000 72.594104
LeftHand -39.300677 -0.000000 41.660055
LeftHandThumb1 -26.253704 0.000000 33.147579
RightShoulder -5.098692 22.336117 -18.503558
RightArm 16.496982 -22.700820 63.946754
RightForeArm -28.216912 -0.000000 70.813390
RightHand -3.748351 0.000000 5.131745
RightHandThumb1 -24.326973 -0.000000 -32.862282
LeftUpLeg -114.070908 -3.363765 -31.564572
LeftLeg 107.620355 -0.000000 -0.000000
LeftFoot 16.492588 -10.142097 -44.602205
LeftToeBase 5.475750 -0.000000 -0.000000
RightUpLeg -62.271698 -13.638852 5.075713
RightLeg 9.113560 -0.000000 -0.000000
RightFoot 19.524340 -16.026092 14.303234
RightToeBase 0.167884 -0.000000 -0.000000
671
root 0.240323 2.290063 -8.013525 -31.059763 3.128182 0.738068
Spine 32.420344 9.649019 10.359963
Head -7.242188 -16.189058 9.393827
LeftShoulder -3.895999 20.002543 18.412584
LeftArm 16.133283 17.859022 -68.087263
LeftForeArm -7.883640 -0.000000 72.901031
LeftHand -38.312744 0.000000 38.330276
LeftHandThumb1 -26.253704 0.000000 33.147579
RightShoulder -4.600306 22.791079 -18.549831
RightArm 17.607599 -22.509108 63.636328
RightForeArm -28.068711 -0.000000 69.422054
RightHand -3.733030 -0.000000 4.779811
RightHandThumb1 -24.326973 -0.000000 -32.862282
LeftUpLeg -114.247583 -3.753294 -31.896354
LeftLeg 107.575434 -0.000000 -0.000000
LeftFoot 16.744568 -10.364985 -44.526023
LeftToeBase 5.332237 -0.000000 -0.000000
RightUpLeg -62.200160 -13.816936 4.799912
RightLeg 9.219573 -0.000000 -0.000000
RightFoot 19.584902 -15.837301 14.448083
RightToeBase 0.119076 -0.000000 -0.000000
672
root 0.238598 2.294834 -8.030991 -31.246389 3.443490 0.799857
Spine 32.843790 9.777639 10.602701
Head -7.500094 -16.661690 9.160800
LeftShoulder -3.651404 19.324822 18.154238
LeftArm 17.252343 17.616120 -67.310416
LeftForeArm -7.919517 -0.000000 73.248461
LeftHand -37.379865 -0.000000 34.798965
LeftHandThumb1 -26.253704 0.000000 33.147579
RightShoulder -4.071860 23.118094 -18.587232
RightArm 18.753552 -22.206811 63.270600
RightForeArm -27.927676 -0.000000 67.959904
RightHand -3.508426 0.000000 4.559983
RightHandThumb1 -24.326973 -0.000000 -32.862282
LeftUpLeg -114.350193 -4.072412 -32.207165
LeftLeg 107.515166 -0.000000 -0.000000
LeftFoot 16.921307 -10.586953 -44.475582
LeftToeBase 5.463251 -0.000000 -0.000000
RightUpLeg -62.086710 -14.060412 4.571333
RightLeg 9.328139 -0.000000 -0.000000
RightFoot 19.679468 -15.478903 14.435194
RightToeBase 0.139602 -0.000000 -0.000000
673
root 0.233700 2.298098 -8.045663 -31.375667 3.727420 0.860136
Spine 33.184551 10.009483 10.875764
Head -7.751361 -17.239548 8.953241
LeftShoulder -3.420258 18.641665 17.865961
LeftArm 18.447920 17.523647 -66.400156
LeftForeArm -7.943841 -0.000000 73.517810
LeftHand -36.268597 0.000000 31.131230
LeftHandThumb1 -26.253704 0.000000 33.147579
RightShoulder -3.719141 23.374454 -18.652680
RightArm 19.892870 -21.976196 62.855431
RightForeArm -27.745852 -0.000000 66.480918
RightHand -3.300433 -0.000000 4.393550
RightHandThumb1 -24.326973 -0.000000 -32.862282
LeftUpLeg -114.515242 -4.344790 -32.383231
LeftLeg 107.508433 -0.000000 -0.000000
LeftFoot 17.459322 -10.847125 -44.757152
LeftToeBase 4.256433 -0.000000 -0.000000
RightUpLeg -62.033785 -14.266940 4.387968
RightLeg 9.439748 -0.000000 -0.000000
RightFoot 19.758840 -15.169298 14.245148
RightToeBase 0.623911 -0.000000 -0.000000
674
root 0.228495 2.301129 -8.064035 -31.511869 4.035766 0.947583
Spine 33.557669 10.134790 11.031920
Head -8.049617 -17.670245 8.746627
LeftShoulder -3.333599 17.981648 17.539129
LeftArm 19.702797 17.472792 -65.459013
LeftForeArm -8.038182 -0.000000 73.749010
LeftHand -34.995463 -0.000000 27.904722
LeftHandThumb1 -26.253704 0.000000 33.147579
RightShoulder -3.185176 23.786276 -18.746898
RightArm 20.771302 -21.647203 62.636660
RightForeArm -27.547517 -0.000000 64.999124
RightHand -3.045227 -0.000000 4.460923
RightHandThumb1 -24.326973 -0.000000 -32.862282
LeftUpLeg -114.634995 -4.601403 -32.592960
LeftLeg 107.497592 -0.000000 -0.000000
LeftFoot 17.501474 -11.176137 -44.608839
LeftToeBase 4.509038 -0.000000 -0.000000
RightUpLeg -61.916356 -14.423522 4.082293
RightLeg 9.490930 -0.000000 -0.000000
RightFoot 19.776320 -14.959351 14.207704
RightToeBase 0.362626 -0.000000 -0.000000
675
root 0.223689 2.300232 -8.078715 -31.601554 4.308433 1.004888
Spine 33.848418 10.339506 11.242979
Head -8.317578 -18.164946 8.628245
LeftShoulder -3.209223 17.343325 17.263869
LeftArm 20.980049 17.490852 -64.519718
LeftForeArm -8.253578 -0.000000 73.978896
LeftHand -33.655669 -0.000000 24.809681
LeftHandThumb1 -26.253704 0.000000 33.147579
RightShoulder -2.851963 24.157295 -18.875112
RightArm 21.689112 -21.486704 62.329817
RightForeArm -27.328598 0.000000 63.435410
RightHand -2.759312 0.000000 4.421486
RightHandThumb1 -24.326973 -0.000000 -32.862282
LeftUpLeg -114.801494 -4.852639 -32.720306
LeftLeg 107.488352 -0.000000 -0.000000
LeftFoot 17.655220 -11.500326 -44.489068
LeftToeBase 4.313658 -0.000000 -0.000000
RightUpLeg -61.842281 -14.552886 3.806229
RightLeg 9.542085 -0.000000 -0.000000
RightFoot 19.804869 -14.738167 14.096093
RightToeBase 0.408454 -0.000000 -0.000000
676
root 0.224632 2.298612 -8.099658 -31.628275 4.619163 1.066332
Spine 34.026220 10.410249 11.354163
Head -8.459199 -18.562131 8.430620
LeftShoulder -3.129217 16.690160 16.940658
LeftArm 22.104247 17.510514 -63.636537
LeftForeArm -8.178732 -0.000000 74.235643
LeftHand -32.240991 0.000000 21.420473
LeftHandThumb1 -26.253704 0.000000 33.147579
RightShoulder -2.380401 24.536958 -18.952099
RightArm 22.524349 -21.249175 62.141073
RightForeArm -27.355104 -0.000000 61.815342
RightHand -2.434780 0.000000 4.416593
RightHandThumb1 -24.326973 -0.000000 -32.862282
LeftUpLeg -114.936030 -5.186971 -32.917771
LeftLeg 107.532648 -0.000000 -0.000000
LeftFoot 17.384720 -11.545199 -44.619303
LeftToeBase 4.673707 -0.000000 -0.000000
RightUpLeg -61.731844 -14.609483 3.365672
RightLeg 9.468402 -0.000000 -0.000000
RightFoot 19.807727 -14.832185 14.160342
RightToeBase 0.257142 -0.000000 -0.000000
677
root 0.220210 2.298733 -8.121947 -31.677685 4.863032 1.147011
Spine 34.238609 10.589828 11.499755
Head -8.579782 -18.961906 8.262027
LeftShoulder -2.944414 16.123490 16.675893
LeftArm 23.289570 17.447033 -62.788029
LeftForeArm -7.927108 -0.000000 74.494462
LeftHand -30.937223 -0.000000 18.030354
LeftHandThumb1 -26.253704 0.000000 33.147579
RightShoulder -1.983057 24.837282 -19.045157
RightArm 23.422907 -21.086636 61.857030
RightForeArm -27.484253 -0.000000 60.116713
RightHand -2.223430 -0.000000 4.312161
RightHandThumb1 -24.326973 -0.000000 -32.862282
LeftUpLeg -115.084067 -5.395625 -32.982506
LeftLeg 107.541238 -0.000000 -0.000000
LeftFoot 17.341296 -11.713387 -44.496338
LeftToeBase 4.757645 -0.000000 -0.000000
RightUpLeg -61.498780 -14.584873 2.944866
RightLeg 9.181985 -0.000000 -0.000000
RightFoot 19.862451 -15.070047 14.235507
RightToeBase 0.438049 -0.000000 -0.000000
678
root 0.219895 2.299027 -8.139330 -31.756618 5.152653 1.249487
Spine 34.486202 10.780403 11.579634
Head -8.755567 -19.326144 8.236573
LeftShoulder -2.675782 15.498939 16.526482
LeftArm 24.346002 17.402186 -62.041015
LeftForeArm -7.604506 -0.000000 74.812196
LeftHand -29.667707 -0.000000 15.169747
LeftHandThumb1 -26.253704 0.000000 33.147579
RightShoulder -1.694542 25.143032 -19.140934
RightArm 24.283259 -21.021998 61.495048
RightForeArm -27.503576 -0.000000 58.463809
RightHand -2.060235 -0.000000 4.329621
RightHandThumb1 -24.326973 -0.000000 -32.862282
LeftUpLeg -115.158940 -5.613785 -33.144343
LeftLeg 107.579208 -0.000000 -0.000000
LeftFoot 17.143923 -11.676684 -44.641807
LeftToeBase 5.146453 -0.000000 -0.000000
RightUpLeg -61.361963 -14.672475 2.574666
RightLeg 9.112262 -0.000000 -0.000000
RightFoot 19.937412 -14.937521 13.988802
RightToeBase 0.147254 -0.000000 -0.000000
